<?xml version="1.0" encoding="UTF-8" standalone="no"?>
<svg
   enable-background="new 0 0 24 24"
   height="24px"
   viewBox="0 0 24 24"
   width="24px"
   fill="#000000"
   version="1.1"
   id="svg14"
   sodipodi:docname="jid.svg"
   inkscape:version="1.1.2 (0a00cf5339, 2022-02-04)"
   xmlns:inkscape="http://www.inkscape.org/namespaces/inkscape"
   xmlns:sodipodi="http://sodipodi.sourceforge.net/DTD/sodipodi-0.dtd"
   xmlns="http://www.w3.org/2000/svg"
   xmlns:svg="http://www.w3.org/2000/svg">
  <defs
     id="defs18" />
  <sodipodi:namedview
     id="namedview16"
     pagecolor="#ffffff"
     bordercolor="#666666"
     borderopacity="1.0"
     inkscape:pageshadow="2"
     inkscape:pageopacity="0.0"
     inkscape:pagecheckerboard="0"
     showgrid="false"
     inkscape:zoom="26.833333"
     inkscape:cx="12.745342"
     inkscape:cy="12.074534"
     inkscape:window-width="1920"
     inkscape:window-height="1043"
     inkscape:window-x="0"
     inkscape:window-y="0"
     inkscape:window-maximized="1"
     inkscape:current-layer="svg14" />
  <g
     id="g4">
    <rect
       fill="none"
       height="24"
       width="24"
       id="rect2" />
  </g>
  <g
     id="g3657"
     style="fill:#f58220;fill-opacity:1">
    <g
       id="g12"
       transform="matrix(1.2,0,0,1.2,-2.4,-2.4)"
       style="fill:#f58220;fill-opacity:1;stroke-width:1;stroke-miterlimit:4;stroke-dasharray:none">
      <g
         id="g10"
         style="fill:#f58220;fill-opacity:1;stroke-width:1;stroke-miterlimit:4;stroke-dasharray:none">
        <path
           d="M 4,7 V 9 C 4,9.55 3.55,10 3,10 H 2 v 4 h 1 c 0.55,0 1,0.45 1,1 v 2 c 0,1.65 1.35,3 3,3 h 3 V 18 H 7 C 6.45,18 6,17.55 6,17 V 15 C 6,13.7 5.16,12.58 4,12.17 V 11.83 C 5.16,11.42 6,10.3 6,9 V 7 C 6,6.45 6.45,6 7,6 h 3 V 4 H 7 C 5.35,4 4,5.35 4,7 Z"
           id="path6"
           style="fill:#f58220;fill-opacity:1;stroke-width:1;stroke-miterlimit:4;stroke-dasharray:none" />
        <path
           d="M 21,10 C 20.45,10 20,9.55 20,9 V 7 C 20,5.35 18.65,4 17,4 h -3 v 2 h 3 c 0.55,0 1,0.45 1,1 v 2 c 0,1.3 0.84,2.42 2,2.83 v 0.34 c -1.16,0.41 -2,1.52 -2,2.83 v 2 c 0,0.55 -0.45,1 -1,1 h -3 v 2 h 3 c 1.65,0 3,-1.35 3,-3 v -2 c 0,-0.55 0.45,-1 1,-1 h 1 v -4 z"
           id="path8"
           style="fill:#f58220;fill-opacity:1;stroke-width:1;stroke-miterlimit:4;stroke-dasharray:none" />
      </g>
    </g>
    <circle
       style="fill:#f58220;fill-opacity:1;stroke-width:1.76017;stroke-linecap:square;paint-order:fill markers stroke"
       id="circle1225"
       cx="12.02308"
       cy="15.5"
       r="2" />
    <circle
       style="fill:#f58220;fill-opacity:1;stroke-width:1.76017;stroke-linecap:square;paint-order:fill markers stroke"
       id="circle1143"
       cx="12.032956"
       cy="8.5"
       r="2" />
  </g>
</svg>
